<svg width="24" height="23" viewBox="0 0 24 23" fill="none" xmlns="http://www.w3.org/2000/svg">
<path d="M16.572 1.91667C16.9183 1.91667 17.2612 1.98484 17.5812 2.11728C17.9012 2.24972 18.1919 2.44385 18.4368 2.68857C18.6817 2.93329 18.8759 3.22381 19.0085 3.54356C19.141 3.8633 19.2092 4.206 19.2092 4.55209V18.4479C19.2092 18.794 19.141 19.1367 19.0085 19.4565C18.8759 19.7762 18.6817 20.0667 18.4368 20.3114C18.1919 20.5562 17.9012 20.7503 17.5812 20.8827C17.2612 21.0152 16.9183 21.0833 16.572 21.0833H6.50248C6.15607 21.0833 5.81306 21.0151 5.49303 20.8826C5.173 20.7501 4.88223 20.5559 4.63733 20.3111C4.39242 20.0663 4.19819 19.7756 4.06571 19.4558C3.93323 19.1359 3.86511 18.7931 3.86523 18.447V4.55209C3.86523 3.34459 4.67655 2.32876 5.78323 2.01538V3.59376C5.4917 3.81226 5.30373 4.15917 5.30373 4.55209V18.446C5.30373 19.1073 5.84077 19.6439 6.50248 19.6439H16.572C17.2337 19.6439 17.7707 19.1073 17.7707 18.446V4.55209C17.7707 3.89084 17.2337 3.35417 16.572 3.35417H14.4142V1.91667H16.572ZM13.4552 1.91667V9.71655C13.4552 10.4324 12.688 10.7008 12.2181 10.4487L12.1395 10.3989L10.1006 9.16742L8.10784 10.3663C7.62835 10.7113 6.83238 10.5005 6.74894 9.83155L6.74223 9.71751V1.91667H13.4552ZM12.0167 3.35417H8.18073V8.64705L9.68923 7.73759C9.80942 7.67374 9.94272 7.63845 10.0788 7.63446C10.2148 7.63047 10.35 7.65789 10.4737 7.71459L12.0177 8.64801V3.35417H12.0167Z" fill="#C0BEFF"/>
</svg>
